<svg xmlns="http://www.w3.org/2000/svg" width="720" height="60" fill="none"><g clip-path="url(#a)"><path fill="#fff" d="M0 0h720v60H0z"/><g fill="#C1C3C8" clip-path="url(#b)" opacity=".5"><circle cx="3" cy="17" r="1"/><circle cx="87" cy="17" r="1"/><circle cx="73" cy="17" r="1"/><circle cx="17" cy="17" r="1"/><circle cx="101" cy="17" r="1"/><circle cx="3" cy="3" r="1"/><circle cx="87" cy="3" r="1"/><circle cx="73" cy="3" r="1"/><circle cx="17" cy="3" r="1"/><circle cx="101" cy="3" r="1"/><circle cx="3" cy="31" r="1"/><circle cx="87" cy="31" r="1"/><circle cx="73" cy="31" r="1"/><circle cx="17" cy="31" r="1"/><circle cx="101" cy="31" r="1"/><circle cx="45" cy="17" r="1"/><circle cx="129" cy="17" r="1"/><circle cx="31" cy="17" r="1"/><circle cx="115" cy="17" r="1"/><circle cx="59" cy="17" r="1"/><circle cx="143" cy="17" r="1"/><circle cx="45" cy="3" r="1"/><circle cx="129" cy="3" r="1"/><circle cx="31" cy="3" r="1"/><circle cx="115" cy="3" r="1"/><circle cx="59" cy="3" r="1"/><circle cx="143" cy="3" r="1"/><circle cx="45" cy="31" r="1"/><circle cx="129" cy="31" r="1"/><circle cx="31" cy="31" r="1"/><circle cx="115" cy="31" r="1"/><circle cx="59" cy="31" r="1"/><circle cx="143" cy="31" r="1"/><circle cx="3" cy="59" r="1"/><circle cx="87" cy="59" r="1"/><circle cx="73" cy="59" r="1"/><circle cx="17" cy="59" r="1"/><circle cx="101" cy="59" r="1"/><circle cx="3" cy="45" r="1"/><circle cx="87" cy="45" r="1"/><circle cx="73" cy="45" r="1"/><circle cx="17" cy="45" r="1"/><circle cx="101" cy="45" r="1"/><circle cx="45" cy="59" r="1"/><circle cx="129" cy="59" r="1"/><circle cx="31" cy="59" r="1"/><circle cx="115" cy="59" r="1"/><circle cx="59" cy="59" r="1"/><circle cx="143" cy="59" r="1"/><circle cx="45" cy="45" r="1"/><circle cx="129" cy="45" r="1"/><circle cx="31" cy="45" r="1"/><circle cx="115" cy="45" r="1"/><circle cx="59" cy="45" r="1"/><circle cx="143" cy="45" r="1"/><circle cx="171" cy="17" r="1"/><circle cx="255" cy="17" r="1"/><circle cx="157" cy="17" r="1"/><circle cx="241" cy="17" r="1"/><circle cx="185" cy="17" r="1"/><circle cx="269" cy="17" r="1"/><circle cx="171" cy="3" r="1"/><circle cx="255" cy="3" r="1"/><circle cx="157" cy="3" r="1"/><circle cx="241" cy="3" r="1"/><circle cx="185" cy="3" r="1"/><circle cx="269" cy="3" r="1"/><circle cx="171" cy="31" r="1"/><circle cx="255" cy="31" r="1"/><circle cx="157" cy="31" r="1"/><circle cx="241" cy="31" r="1"/><circle cx="185" cy="31" r="1"/><circle cx="269" cy="31" r="1"/><circle cx="213" cy="17" r="1"/><circle cx="297" cy="17" r="1"/><circle cx="199" cy="17" r="1"/><circle cx="283" cy="17" r="1"/><circle cx="227" cy="17" r="1"/><circle cx="311" cy="17" r="1"/><circle cx="213" cy="3" r="1"/><circle cx="297" cy="3" r="1"/><circle cx="199" cy="3" r="1"/><circle cx="283" cy="3" r="1"/><circle cx="227" cy="3" r="1"/><circle cx="311" cy="3" r="1"/><circle cx="213" cy="31" r="1"/><circle cx="297" cy="31" r="1"/><circle cx="199" cy="31" r="1"/><circle cx="283" cy="31" r="1"/><circle cx="227" cy="31" r="1"/><circle cx="311" cy="31" r="1"/><circle cx="171" cy="59" r="1"/><circle cx="255" cy="59" r="1"/><circle cx="157" cy="59" r="1"/><circle cx="241" cy="59" r="1"/><circle cx="185" cy="59" r="1"/><circle cx="269" cy="59" r="1"/><circle cx="171" cy="45" r="1"/><circle cx="255" cy="45" r="1"/><circle cx="157" cy="45" r="1"/><circle cx="241" cy="45" r="1"/><circle cx="185" cy="45" r="1"/><circle cx="269" cy="45" r="1"/><circle cx="213" cy="59" r="1"/><circle cx="297" cy="59" r="1"/><circle cx="199" cy="59" r="1"/><circle cx="283" cy="59" r="1"/><circle cx="227" cy="59" r="1"/><circle cx="311" cy="59" r="1"/><circle cx="213" cy="45" r="1"/><circle cx="297" cy="45" r="1"/><circle cx="199" cy="45" r="1"/><circle cx="283" cy="45" r="1"/><circle cx="227" cy="45" r="1"/><circle cx="311" cy="45" r="1"/><circle cx="339" cy="17" r="1"/><circle cx="423" cy="17" r="1"/><circle cx="325" cy="17" r="1"/><circle cx="409" cy="17" r="1"/><circle cx="353" cy="17" r="1"/><circle cx="437" cy="17" r="1"/><circle cx="339" cy="3" r="1"/><circle cx="423" cy="3" r="1"/><circle cx="325" cy="3" r="1"/><circle cx="409" cy="3" r="1"/><circle cx="353" cy="3" r="1"/><circle cx="437" cy="3" r="1"/><circle cx="339" cy="31" r="1"/><circle cx="423" cy="31" r="1"/><circle cx="325" cy="31" r="1"/><circle cx="409" cy="31" r="1"/><circle cx="353" cy="31" r="1"/><circle cx="437" cy="31" r="1"/><circle cx="381" cy="17" r="1"/><circle cx="465" cy="17" r="1"/><circle cx="367" cy="17" r="1"/><circle cx="451" cy="17" r="1"/><circle cx="395" cy="17" r="1"/><circle cx="479" cy="17" r="1"/><circle cx="381" cy="3" r="1"/><circle cx="465" cy="3" r="1"/><circle cx="367" cy="3" r="1"/><circle cx="451" cy="3" r="1"/><circle cx="395" cy="3" r="1"/><circle cx="479" cy="3" r="1"/><circle cx="381" cy="31" r="1"/><circle cx="465" cy="31" r="1"/><circle cx="367" cy="31" r="1"/><circle cx="451" cy="31" r="1"/><circle cx="395" cy="31" r="1"/><circle cx="479" cy="31" r="1"/><circle cx="339" cy="59" r="1"/><circle cx="423" cy="59" r="1"/><circle cx="325" cy="59" r="1"/><circle cx="409" cy="59" r="1"/><circle cx="353" cy="59" r="1"/><circle cx="437" cy="59" r="1"/><circle cx="339" cy="45" r="1"/><circle cx="423" cy="45" r="1"/><circle cx="325" cy="45" r="1"/><circle cx="409" cy="45" r="1"/><circle cx="353" cy="45" r="1"/><circle cx="437" cy="45" r="1"/><circle cx="381" cy="59" r="1"/><circle cx="465" cy="59" r="1"/><circle cx="367" cy="59" r="1"/><circle cx="451" cy="59" r="1"/><circle cx="395" cy="59" r="1"/><circle cx="479" cy="59" r="1"/><circle cx="381" cy="45" r="1"/><circle cx="465" cy="45" r="1"/><circle cx="367" cy="45" r="1"/><circle cx="451" cy="45" r="1"/><circle cx="395" cy="45" r="1"/><circle cx="479" cy="45" r="1"/><circle cx="507" cy="17" r="1"/><circle cx="591" cy="17" r="1"/><circle cx="493" cy="17" r="1"/><circle cx="577" cy="17" r="1"/><circle cx="521" cy="17" r="1"/><circle cx="605" cy="17" r="1"/><circle cx="507" cy="3" r="1"/><circle cx="591" cy="3" r="1"/><circle cx="493" cy="3" r="1"/><circle cx="577" cy="3" r="1"/><circle cx="521" cy="3" r="1"/><circle cx="605" cy="3" r="1"/><circle cx="507" cy="31" r="1"/><circle cx="591" cy="31" r="1"/><circle cx="493" cy="31" r="1"/><circle cx="577" cy="31" r="1"/><circle cx="521" cy="31" r="1"/><circle cx="605" cy="31" r="1"/><circle cx="549" cy="17" r="1"/><circle cx="633" cy="17" r="1"/><circle cx="535" cy="17" r="1"/><circle cx="619" cy="17" r="1"/><circle cx="563" cy="17" r="1"/><circle cx="647" cy="17" r="1"/><circle cx="549" cy="3" r="1"/><circle cx="633" cy="3" r="1"/><circle cx="535" cy="3" r="1"/><circle cx="619" cy="3" r="1"/><circle cx="563" cy="3" r="1"/><circle cx="647" cy="3" r="1"/><circle cx="549" cy="31" r="1"/><circle cx="633" cy="31" r="1"/><circle cx="535" cy="31" r="1"/><circle cx="619" cy="31" r="1"/><circle cx="563" cy="31" r="1"/><circle cx="647" cy="31" r="1"/><circle cx="507" cy="59" r="1"/><circle cx="591" cy="59" r="1"/><circle cx="493" cy="59" r="1"/><circle cx="577" cy="59" r="1"/><circle cx="521" cy="59" r="1"/><circle cx="605" cy="59" r="1"/><circle cx="507" cy="45" r="1"/><circle cx="591" cy="45" r="1"/><circle cx="493" cy="45" r="1"/><circle cx="577" cy="45" r="1"/><circle cx="521" cy="45" r="1"/><circle cx="605" cy="45" r="1"/><circle cx="549" cy="59" r="1"/><circle cx="633" cy="59" r="1"/><circle cx="535" cy="59" r="1"/><circle cx="619" cy="59" r="1"/><circle cx="563" cy="59" r="1"/><circle cx="647" cy="59" r="1"/><circle cx="549" cy="45" r="1"/><circle cx="633" cy="45" r="1"/><circle cx="535" cy="45" r="1"/><circle cx="619" cy="45" r="1"/><circle cx="563" cy="45" r="1"/><circle cx="647" cy="45" r="1"/><circle cx="675" cy="17" r="1"/><circle cx="661" cy="17" r="1"/><circle cx="689" cy="17" r="1"/><circle cx="675" cy="3" r="1"/><circle cx="661" cy="3" r="1"/><circle cx="689" cy="3" r="1"/><circle cx="675" cy="31" r="1"/><circle cx="661" cy="31" r="1"/><circle cx="689" cy="31" r="1"/><circle cx="675" cy="59" r="1"/><circle cx="661" cy="59" r="1"/><circle cx="689" cy="59" r="1"/><circle cx="675" cy="45" r="1"/><circle cx="661" cy="45" r="1"/><circle cx="689" cy="45" r="1"/><circle cx="703" cy="17" r="1"/><circle cx="703" cy="3" r="1"/><circle cx="703" cy="31" r="1"/><circle cx="703" cy="59" r="1"/><circle cx="703" cy="45" r="1"/><circle cx="717" cy="17" r="1"/><circle cx="717" cy="3" r="1"/><circle cx="717" cy="31" r="1"/><circle cx="717" cy="59" r="1"/><circle cx="717" cy="45" r="1"/></g><rect width="72.5" height="28" x="33" y="16" fill="#EDEEF3" rx="4"/><rect width="72.5" height="28" x="33" y="16" stroke="#555962" stroke-width=".5" rx="4"/><rect width="16" height="16" x="39" y="22" fill="#555962" rx="2"/><path fill="#EDEEF3" d="M50.5 28.5a.5.5 0 0 1-.5.5h-1a.5.5 0 0 1-.5-.5H48v5h3v-5h-.5Zm-7.5-2v6h4v-4a1 1 0 0 1 1-1h1.5v-1H43Zm7.5 1h.5a1 1 0 0 1 1 1v5a1 1 0 0 1-1 1h-3a1 1 0 0 1-1-1h-4a1 1 0 0 1-1-1v-6a1 1 0 0 1 1-1h6.5a1 1 0 0 1 1 1v1Z"/><path fill="#17181C" d="M59.599 32v-3.636h.659v3.084h1.601V32H59.6Zm5.94-1.818c0 .392-.074.727-.22 1.007a1.56 1.56 0 0 1-.597.639 1.65 1.65 0 0 1-.854.222 1.66 1.66 0 0 1-.856-.222 1.587 1.587 0 0 1-.597-.641c-.145-.28-.218-.615-.218-1.005 0-.392.073-.727.218-1.005a1.57 1.57 0 0 1 .597-.641c.252-.148.537-.222.856-.222.318 0 .603.074.854.222.252.148.45.361.596.64.147.279.22.614.22 1.006Zm-.663 0c0-.276-.043-.509-.13-.698a.96.96 0 0 0-.354-.431.94.94 0 0 0-.524-.148.94.94 0 0 0-.524.148.97.97 0 0 0-.357.431c-.085.19-.128.422-.128.698 0 .276.043.509.128.7a.983.983 0 0 0 .357.43.95.95 0 0 0 .524.146.95.95 0 0 0 .524-.145.973.973 0 0 0 .355-.432c.086-.19.13-.423.13-.7Zm4.398-.591h-.664a.827.827 0 0 0-.105-.29.78.78 0 0 0-.45-.35 1.028 1.028 0 0 0-.31-.046.942.942 0 0 0-.525.15.979.979 0 0 0-.359.433 1.67 1.67 0 0 0-.13.694c0 .278.044.512.13.703a.98.98 0 0 0 .359.43.964.964 0 0 0 .523.143c.11 0 .211-.014.306-.042a.837.837 0 0 0 .257-.13.79.79 0 0 0 .304-.494l.664.004a1.43 1.43 0 0 1-.162.487 1.434 1.434 0 0 1-.786.67 1.733 1.733 0 0 1-.591.097c-.32 0-.605-.074-.856-.222a1.55 1.55 0 0 1-.593-.641c-.145-.28-.217-.615-.217-1.005 0-.392.073-.727.218-1.005a1.56 1.56 0 0 1 1.448-.863c.202 0 .39.028.564.085.174.057.33.14.465.25.136.11.248.243.336.402.089.157.147.337.174.54ZM70.3 32h-.703l1.28-3.636h.814L72.972 32h-.703l-.97-2.89h-.03L70.3 32Zm.023-1.426h1.918v.53h-1.918v-.53ZM73.451 32v-3.636h.66v3.084h1.6V32h-2.26Zm5.305 0h-1.232v-3.636h1.257c.36 0 .671.072.93.218.26.144.46.352.6.623.14.271.21.596.21.973 0 .38-.07.705-.211.977a1.46 1.46 0 0 1-.606.627c-.263.145-.579.218-.948.218Zm-.574-.57h.542c.253 0 .465-.046.634-.139a.886.886 0 0 0 .382-.417 1.67 1.67 0 0 0 .128-.696c0-.278-.043-.509-.128-.692a.871.871 0 0 0-.379-.414 1.256 1.256 0 0 0-.618-.138h-.56v2.496Zm2.965.57v-3.636h2.365v.552h-1.707v.987h1.584v.552h-1.584v.993h1.721V32h-2.38Zm3.523-3.636.947 2.862h.037l.945-2.862h.724L86.041 32h-.813l-1.28-3.636h.722Zm3.79 0V32h-.658v-3.636h.659Zm3.827 1.227h-.664a.827.827 0 0 0-.105-.29.78.78 0 0 0-.45-.35 1.028 1.028 0 0 0-.31-.046.942.942 0 0 0-.526.15.979.979 0 0 0-.358.433c-.087.189-.13.42-.13.694 0 .278.043.512.13.703.087.19.207.333.358.43a.964.964 0 0 0 .524.143c.109 0 .21-.014.305-.042a.837.837 0 0 0 .258-.13.79.79 0 0 0 .304-.494l.664.004a1.432 1.432 0 0 1-.162.487 1.434 1.434 0 0 1-.787.67 1.733 1.733 0 0 1-.59.097c-.32 0-.606-.074-.857-.222a1.55 1.55 0 0 1-.593-.641c-.144-.28-.216-.615-.216-1.005 0-.392.073-.727.218-1.005a1.56 1.56 0 0 1 1.447-.863c.203 0 .39.028.565.085.174.057.329.14.465.25.136.11.248.243.336.402.088.157.146.337.174.54ZM92.89 32v-3.636h2.365v.552h-1.706v.987h1.583v.552H93.55v.993h1.72V32h-2.38Zm5.013-2.637a.484.484 0 0 0-.21-.362.805.805 0 0 0-.475-.13.908.908 0 0 0-.353.063.523.523 0 0 0-.226.168.41.41 0 0 0-.028.44.472.472 0 0 0 .143.143c.06.038.128.07.201.096.073.026.148.047.222.065l.34.085c.138.032.27.076.397.13.128.055.242.123.343.206a.913.913 0 0 1 .241.3c.06.117.089.255.089.412 0 .213-.055.4-.163.563a1.08 1.08 0 0 1-.473.378c-.205.09-.453.135-.744.135-.283 0-.528-.044-.737-.131a1.098 1.098 0 0 1-.486-.384 1.137 1.137 0 0 1-.188-.614h.648a.55.55 0 0 0 .117.316.62.62 0 0 0 .268.188c.111.041.236.062.373.062.143 0 .269-.021.376-.064a.611.611 0 0 0 .256-.18.438.438 0 0 0 .094-.274.348.348 0 0 0-.083-.235.611.611 0 0 0-.23-.156 2.206 2.206 0 0 0-.34-.113l-.414-.107c-.3-.077-.536-.194-.71-.35a.807.807 0 0 1-.26-.627.94.94 0 0 1 .174-.563 1.15 1.15 0 0 1 .478-.374c.201-.09.43-.135.684-.135.258 0 .484.045.678.135.195.089.349.212.46.371a.947.947 0 0 1 .172.543h-.634Z"/><circle cx="105.5" cy="30" r="1.75" fill="#555962" stroke="#fff" stroke-width=".5"/><circle cx="33" cy="30" r="1.75" fill="#555962" stroke="#fff" stroke-width=".5"/><rect width="72.5" height="28" x="178.625" y="16" fill="#F9C3D6" rx="4"/><rect width="72.5" height="28" x="178.625" y="16" stroke="#F53D7D" stroke-width=".5" rx="4"/><rect width="16" height="16" x="184.625" y="22" fill="#8A0F3A" rx="2"/><path fill="#F9C3D6" d="M191.271 29.146a.5.5 0 0 1 .707.707l-.646.647.793.793.646-.647a.5.5 0 0 1 .707.707l-.646.647.146.146a.499.499 0 0 1 0 .707l-.75.75a2.264 2.264 0 0 1-2.834.334l-.916.916a.5.5 0 0 1-.707-.707l.916-.916a2.274 2.274 0 0 1-.35-1.228 2.252 2.252 0 0 1 .69-1.611l.744-.745.037-.033a.5.5 0 0 1 .67.033l.147.147.646-.647Zm-1.548 1.963a1.28 1.28 0 0 0-.386.9 1.272 1.272 0 0 0 .277.802.487.487 0 0 1 .199.2 1.27 1.27 0 0 0 1.703-.108l.402-.403-1.793-1.793-.402.402Zm7.048-5.963a.5.5 0 0 1 .707.707l-.916.916a2.277 2.277 0 0 1 .168 2.104 2.285 2.285 0 0 1-.502.73l-.75.75a.5.5 0 0 1-.707 0l-2.5-2.5a.503.503 0 0 1 0-.707l.75-.75a2.283 2.283 0 0 1 1.606-.684 2.27 2.27 0 0 1 1.228.35l.916-.916Zm-2.136 1.566a1.271 1.271 0 0 0-.901.386l-.402.402 1.793 1.793.402-.402a1.28 1.28 0 0 0 .386-.9 1.272 1.272 0 0 0-.278-.803.506.506 0 0 1-.199-.199 1.263 1.263 0 0 0-.801-.277Z"/><path fill="#17181C" d="M207.096 29.59h-.664a.827.827 0 0 0-.105-.289.761.761 0 0 0-.449-.35 1.013 1.013 0 0 0-.311-.046.942.942 0 0 0-.525.15.981.981 0 0 0-.359.433 1.67 1.67 0 0 0-.129.694c0 .278.043.512.129.703a.98.98 0 0 0 .359.43.964.964 0 0 0 .524.143c.109 0 .21-.014.305-.042a.84.84 0 0 0 .258-.13.794.794 0 0 0 .303-.494l.664.004a1.429 1.429 0 0 1-.483.888 1.468 1.468 0 0 1-.465.27 1.732 1.732 0 0 1-.591.096c-.32 0-.605-.074-.856-.222a1.546 1.546 0 0 1-.593-.641c-.144-.28-.217-.615-.217-1.005 0-.392.073-.727.219-1.005.145-.28.344-.493.595-.641.25-.148.535-.222.852-.222.202 0 .39.028.564.085.174.057.33.14.466.25.136.11.248.243.335.402.089.157.147.337.174.54Zm3.853.592c0 .392-.074.727-.22 1.007a1.564 1.564 0 0 1-.597.639 1.651 1.651 0 0 1-.854.222 1.66 1.66 0 0 1-.856-.222 1.58 1.58 0 0 1-.596-.641c-.146-.28-.219-.615-.219-1.005 0-.392.073-.727.219-1.005.146-.28.345-.493.596-.641a1.66 1.66 0 0 1 .856-.222c.318 0 .603.074.854.222.252.148.451.361.597.64.146.279.22.614.22 1.006Zm-.663 0c0-.276-.043-.509-.129-.698a.961.961 0 0 0-.355-.431.942.942 0 0 0-.524-.148.942.942 0 0 0-.524.148.978.978 0 0 0-.357.431c-.085.19-.128.422-.128.698 0 .276.043.509.128.7a.983.983 0 0 0 .357.43.951.951 0 0 0 .524.146.951.951 0 0 0 .524-.145.975.975 0 0 0 .355-.432c.086-.19.129-.423.129-.7Zm4.274-1.818V32h-.586l-1.714-2.477h-.03V32h-.658v-3.636h.589l1.712 2.478h.032v-2.478h.655Zm.718 3.636v-3.636h2.365v.552h-1.707v.987h1.584v.552h-1.584v.993h1.721V32h-2.379Zm6.149-2.41h-.664a.827.827 0 0 0-.105-.289.761.761 0 0 0-.449-.35 1.01 1.01 0 0 0-.31-.046.943.943 0 0 0-.526.15.981.981 0 0 0-.359.433 1.67 1.67 0 0 0-.129.694c0 .278.043.512.129.703a.98.98 0 0 0 .359.43.964.964 0 0 0 .524.143c.109 0 .21-.014.305-.042a.84.84 0 0 0 .258-.13.794.794 0 0 0 .303-.494l.664.004a1.429 1.429 0 0 1-.483.888 1.468 1.468 0 0 1-.465.27 1.732 1.732 0 0 1-.591.096c-.32 0-.605-.074-.856-.222a1.546 1.546 0 0 1-.593-.641c-.144-.28-.217-.615-.217-1.005 0-.392.073-.727.219-1.005.145-.28.344-.493.595-.641.251-.148.535-.222.852-.222.202 0 .39.028.565.085.174.057.329.14.465.25.136.11.248.243.335.402.089.157.147.337.174.54Zm.444-.674v-.552h2.901v.552h-1.124V32h-.653v-3.084h-1.124Zm6.548 1.266c0 .392-.073.727-.22 1.007a1.555 1.555 0 0 1-.596.639 1.651 1.651 0 0 1-.854.222c-.319 0-.604-.074-.856-.222a1.59 1.59 0 0 1-.597-.641c-.145-.28-.218-.615-.218-1.005 0-.392.073-.727.218-1.005a1.57 1.57 0 0 1 .597-.641c.252-.148.537-.222.856-.222.318 0 .603.074.854.222.252.148.451.361.596.64.147.279.22.614.22 1.006Zm-.662 0c0-.276-.043-.509-.129-.698a.963.963 0 0 0-.356-.431.939.939 0 0 0-.523-.148.94.94 0 0 0-.524.148.965.965 0 0 0-.357.431c-.085.19-.128.422-.128.698 0 .276.043.509.128.7a.97.97 0 0 0 .357.43.949.949 0 0 0 .524.146.948.948 0 0 0 .523-.145.977.977 0 0 0 .356-.432c.086-.19.129-.423.129-.7ZM229.042 32v-3.636h1.364c.279 0 .514.048.703.145a.99.99 0 0 1 .431.409c.099.174.148.377.148.609 0 .233-.05.435-.149.607a.993.993 0 0 1-.435.396 1.623 1.623 0 0 1-.707.138h-.971v-.547h.882c.164 0 .297-.022.402-.067a.473.473 0 0 0 .23-.2.646.646 0 0 0 .077-.327.667.667 0 0 0-.077-.33.485.485 0 0 0-.232-.21.959.959 0 0 0-.403-.073h-.604V32h-.659Zm1.879-1.648.9 1.648h-.735l-.884-1.648h.719Z"/><circle cx="251.125" cy="30" r="1.75" fill="#F53D7D" stroke="#fff" stroke-width=".5"/><circle cx="178.625" cy="30" r="1.75" fill="#F53D7D" stroke="#fff" stroke-width=".5"/><path fill="#555962" d="M108.25 29.75a.25.25 0 0 0 0 .5v-.5Zm67.802.427a.251.251 0 0 0 0-.354l-1.591-1.59a.25.25 0 0 0-.354.353L175.521 30l-1.414 1.414a.25.25 0 0 0 .354.354l1.591-1.591ZM108.25 30v.25h67.625v-.5H108.25V30Z"/><rect width="72.5" height="28" x="324.25" y="16" fill="#EDD1FA" rx="4"/><rect width="72.5" height="28" x="324.25" y="16" stroke="#BB3DF5" stroke-width=".5" rx="4"/><rect width="16" height="16" x="330.25" y="22" fill="#660891" rx="2"/><path fill="#fff" d="M336.75 32.519V31.02h-1v1.498h-2a.5.5 0 0 0 0 1h2a1.001 1.001 0 0 0 1-1Zm2 .5V31.02h-1v1.998a.5.5 0 0 0 1 0Zm1-1.999v1.499a.998.998 0 0 0 1 1h2a.5.5 0 0 0 0-1h-2V31.02h-1Zm1-3.001a.5.5 0 0 1 0 1h-3a.5.5 0 0 1 0-1h3Z"/><path fill="#fff" fill-rule="evenodd" d="M341.25 31.019h-6c-.6 0-1.132-.334-1.322-.5a2 2 0 0 1-.678-1.5v-1a2 2 0 0 1 2-2h6a2 2 0 0 1 2 2v1a2 2 0 0 1-.678 1.5c-.261.293-.99.455-1.322.5Zm.707-3.707a.998.998 0 0 1 .293.707v1a.998.998 0 0 1-1 1h-6a1.001 1.001 0 0 1-1-1v-1a.998.998 0 0 1 1-1h6a1 1 0 0 1 .707.293Z" clip-rule="evenodd"/><path fill="#fff" d="M335.25 28.524v-.005a.5.5 0 0 1 1 0v.005a.5.5 0 0 1-1 0Z"/><path fill="#17181C" d="M350.267 28.364V32h-.658v-3.636h.658Zm3.963 1.818c0 .392-.073.727-.22 1.007a1.564 1.564 0 0 1-.597.639 1.649 1.649 0 0 1-.854.222c-.318 0-.603-.074-.856-.222a1.587 1.587 0 0 1-.596-.641c-.146-.28-.219-.615-.219-1.005 0-.392.073-.727.219-1.005.147-.28.345-.493.596-.641.253-.148.538-.222.856-.222.319 0 .603.074.854.222.252.148.451.361.597.64.147.279.22.614.22 1.006Zm-.662 0c0-.276-.043-.509-.13-.698a.955.955 0 0 0-.355-.431.942.942 0 0 0-.524-.148.944.944 0 0 0-.524.148.97.97 0 0 0-.356.431c-.086.19-.128.422-.128.698 0 .276.042.509.128.7a.974.974 0 0 0 .356.43.954.954 0 0 0 .524.146.951.951 0 0 0 .524-.145.969.969 0 0 0 .355-.432c.087-.19.13-.423.13-.7Zm.964-1.266v-.552h2.901v.552h-1.124V32h-.653v-3.084h-1.124Zm7.137.609a.957.957 0 0 0-.123-.258.748.748 0 0 0-.429-.32 1.026 1.026 0 0 0-.302-.042.94.94 0 0 0-.522.148.99.99 0 0 0-.361.433 1.67 1.67 0 0 0-.129.692c0 .275.043.508.129.698a.99.99 0 0 0 .361.435.974.974 0 0 0 .536.148c.185 0 .344-.036.479-.107a.757.757 0 0 0 .315-.302.936.936 0 0 0 .11-.462l.149.023h-.987v-.514h1.475v.436c0 .312-.066.581-.199.808a1.356 1.356 0 0 1-.547.526 1.69 1.69 0 0 1-.799.183c-.335 0-.629-.075-.882-.226a1.56 1.56 0 0 1-.591-.644 2.186 2.186 0 0 1-.212-.995c0-.293.042-.555.125-.786.084-.231.201-.427.351-.588.151-.162.327-.285.529-.37.203-.084.423-.127.661-.127.201 0 .389.03.563.089.174.058.328.14.463.248a1.358 1.358 0 0 1 .508.874h-.671ZM363.362 32h-.703l1.28-3.636h.813L366.034 32h-.703l-.971-2.89h-.029l-.969 2.89Zm.023-1.426h1.917v.53h-1.917v-.53Zm2.529-1.658v-.552h2.901v.552h-1.124V32h-.653v-3.084h-1.124Zm3.46 3.084v-3.636h2.365v.552h-1.706v.987h1.584v.552h-1.584v.993h1.721V32h-2.38Zm3.803 0-1.027-3.636h.709l.655 2.672h.034l.699-2.672h.645l.701 2.674h.032l.655-2.674h.709L375.963 32h-.65l-.728-2.552h-.029L373.827 32h-.65Zm4.394 0h-.703l1.28-3.636h.813L380.243 32h-.703l-.971-2.89h-.029l-.969 2.89Zm.023-1.426h1.917v.53h-1.917v-.53Zm2.508-2.21h.744l.89 1.608h.035l.89-1.608h.744l-1.323 2.28V32h-.657v-1.357l-1.323-2.28Z"/><circle cx="396.75" cy="30" r="1.75" fill="#BB3DF5" stroke="#fff" stroke-width=".5"/><circle cx="324.25" cy="30" r="1.75" fill="#BB3DF5" stroke="#fff" stroke-width=".5"/><path fill="#F53D7D" d="M253.875 29.75a.25.25 0 0 0 0 .5v-.5Zm67.802.427a.251.251 0 0 0 0-.354l-1.591-1.59a.25.25 0 0 0-.354.353L321.146 30l-1.414 1.414a.25.25 0 0 0 .354.354l1.591-1.591ZM253.875 30v.25H321.5v-.5h-67.625V30Z"/><rect width="72.5" height="28" x="469.875" y="16" fill="#00695C" fill-opacity=".16" rx="4"/><rect width="72.5" height="28" x="469.875" y="16" stroke="#00695C" stroke-width=".5" rx="4"/><rect width="16" height="16" x="475.875" y="22" fill="#00695C" rx="2"/><g clip-path="url(#c)"><path fill="#EDEEF3" d="M479.927 26.526a7.42 7.42 0 0 1 7.421 7.421 7.42 7.42 0 1 1-14.842 0 7.421 7.421 0 0 1 7.421-7.42Zm-.022 1.028a6.416 6.416 0 1 0 0 12.831 6.416 6.416 0 0 0 0-12.831Zm0 .802a5.614 5.614 0 1 1 0 11.229 5.614 5.614 0 0 1 0-11.229Zm0 .802a4.812 4.812 0 1 0 0 9.623 4.812 4.812 0 0 0 0-9.623Zm0 .802a4.01 4.01 0 1 1 0 8.02 4.01 4.01 0 0 1 0-8.02Zm0 .802a3.208 3.208 0 1 0 0 6.416 3.208 3.208 0 0 0 0-6.416Zm0 .802a2.406 2.406 0 1 1 0 4.812 2.406 2.406 0 0 1 0-4.812Z"/></g><path fill="#17181C" d="M495.234 28.364h.806l1.079 2.635h.043l1.079-2.635h.807V32h-.633v-2.498h-.033l-1.005 2.487h-.473l-1.004-2.493h-.034V32h-.632v-3.636Zm5.886 2.414h.596l.354.459.252.298.605.777h-.639l-.412-.521-.176-.25-.58-.763Zm1.894-.596c0 .392-.073.727-.22 1.007a1.558 1.558 0 0 1-.597.639 1.649 1.649 0 0 1-.854.222c-.318 0-.603-.074-.855-.222a1.59 1.59 0 0 1-.597-.641c-.146-.28-.218-.615-.218-1.005 0-.392.072-.727.218-1.005a1.57 1.57 0 0 1 .597-.641c.252-.148.537-.222.855-.222.319 0 .603.074.854.222.253.148.451.361.597.64.147.279.22.614.22 1.006Zm-.662 0c0-.276-.043-.509-.13-.698a.955.955 0 0 0-.355-.431.94.94 0 0 0-.524-.148.939.939 0 0 0-.523.148.965.965 0 0 0-.357.431c-.086.19-.128.422-.128.698 0 .276.042.509.128.7a.97.97 0 0 0 .357.43.948.948 0 0 0 .523.146.949.949 0 0 0 .524-.145.969.969 0 0 0 .355-.432c.087-.19.13-.423.13-.7Zm.969-1.266v-.552h2.901v.552h-1.124V32h-.653v-3.084h-1.124Zm3.301 0v-.552h2.901v.552h-1.124V32h-.653v-3.084h-1.124Zm3.592 1.266c0-.444.058-.852.175-1.223a3.55 3.55 0 0 1 .528-1.034h.605c-.09.117-.174.261-.252.431-.078.17-.146.356-.204.558-.057.201-.102.41-.135.627a4.383 4.383 0 0 0 .036 1.493c.056.288.133.555.229.8.097.246.206.447.326.603h-.605a3.554 3.554 0 0 1-.528-1.032 4.07 4.07 0 0 1-.175-1.223Zm3.812-.819a.483.483 0 0 0-.209-.362.806.806 0 0 0-.476-.13.906.906 0 0 0-.353.063.519.519 0 0 0-.226.168.41.41 0 0 0-.028.44.467.467 0 0 0 .143.143c.061.038.128.07.201.096.074.026.147.047.222.065l.341.085c.137.032.269.076.396.13.128.055.242.123.343.206a.92.92 0 0 1 .241.3.905.905 0 0 1 .089.412c0 .213-.055.4-.163.563a1.081 1.081 0 0 1-.473.378c-.205.09-.453.135-.744.135-.283 0-.528-.044-.737-.131a1.096 1.096 0 0 1-.486-.384 1.132 1.132 0 0 1-.188-.614h.648a.545.545 0 0 0 .117.316.622.622 0 0 0 .268.188c.111.041.236.062.373.062.143 0 .269-.021.376-.064a.614.614 0 0 0 .256-.18.434.434 0 0 0 .094-.274.349.349 0 0 0-.083-.235.618.618 0 0 0-.229-.156 2.21 2.21 0 0 0-.341-.113l-.414-.107c-.299-.077-.536-.194-.71-.35a.806.806 0 0 1-.259-.627.94.94 0 0 1 .174-.563c.117-.16.276-.285.477-.374.201-.09.429-.135.684-.135.258 0 .484.045.678.135.195.089.349.212.46.371a.945.945 0 0 1 .172.543h-.634Zm2.39.819c0 .443-.059.85-.178 1.223a3.497 3.497 0 0 1-.525 1.032h-.606a2.13 2.13 0 0 0 .252-.43 3.78 3.78 0 0 0 .203-.557 4.856 4.856 0 0 0 .184-1.268c0-.28-.028-.565-.085-.852a4.557 4.557 0 0 0-.229-.801 2.422 2.422 0 0 0-.325-.604h.606c.233.316.408.66.525 1.034.119.371.178.779.178 1.223Z"/><circle cx="542.375" cy="30" r="1.75" fill="#00695C" stroke="#fff" stroke-width=".5"/><circle cx="469.875" cy="30" r="1.75" fill="#00695C" stroke="#fff" stroke-width=".5"/><path fill="#BB3DF5" d="M399.5 29.75a.25.25 0 0 0 0 .5v-.5Zm67.802.427a.251.251 0 0 0 0-.354l-1.591-1.59a.25.25 0 0 0-.354.353L466.771 30l-1.414 1.414a.25.25 0 0 0 .354.354l1.591-1.591ZM399.5 30v.25h67.625v-.5H399.5V30Z"/><rect width="72.5" height="28" x="615.5" y="16" fill="#CFD4FC" rx="4"/><rect width="72.5" height="28" x="615.5" y="16" stroke="#3D50F5" stroke-width=".5" rx="4"/><rect width="16" height="16" x="621.5" y="22" fill="#3D50F5" rx="2"/><path fill="#CFD4FC" d="M629.234 25.2a4.51 4.51 0 0 0-2.328.646 1.1 1.1 0 0 0-.692-.246h-.001c-.604 0-1.1.496-1.1 1.1v.001c0 .252.088.495.243.688a4.51 4.51 0 0 0-.656 2.345c0 .034.006.07.019.101a.271.271 0 0 0 .143.145.26.26 0 0 0 .288-.058.256.256 0 0 0 .076-.188c0-.741.202-1.433.551-2.028a1.1 1.1 0 0 0 .436.095c.605 0 1.101-.496 1.101-1.1 0-.15-.034-.296-.093-.432a3.986 3.986 0 0 1 2.013-.543.268.268 0 0 0 .188-.076.268.268 0 0 0 .078-.187.271.271 0 0 0-.02-.102.27.27 0 0 0-.144-.142.266.266 0 0 0-.102-.019Zm-3.021.926a.56.56 0 0 1 .445.212l.006.007a.575.575 0 0 1-.81.803h-.001a.574.574 0 0 1 .36-1.022Z"/><path fill="#CFD4FC" fill-rule="evenodd" d="M626.709 28.285a.246.246 0 0 0-.068.182c.003.061.027.12.07.165.204.206.607.607.607.607l.355-.355-.605-.605a.248.248 0 0 0-.181-.07.243.243 0 0 0-.178.076Zm.964.6-1.099 1.098a.306.306 0 0 0 0 .432l.545.545.952.953.915.914c.119.12.312.12.432 0l.743-.744 1.138-1.137 1.099-1.1a.306.306 0 0 0 0-.431l-.559-.56-.953-.952-.9-.9a.306.306 0 0 0-.432 0l-.743.744-1.138 1.137Zm1.138-1.138-.606-.605a.246.246 0 0 0-.18-.07.245.245 0 0 0-.247.257.258.258 0 0 0 .071.166c.204.206.606.607.606.607l.356-.355Zm2.075.156.605-.605a.246.246 0 0 0 .07-.18.245.245 0 0 0-.257-.247.258.258 0 0 0-.166.07c-.206.204-.607.607-.607.607l.355.355Zm.953.953.605-.606a.25.25 0 0 0 .07-.18.245.245 0 0 0-.258-.246.258.258 0 0 0-.165.07c-.206.204-.607.606-.607.606l.355.356Zm-.54 2.09.605.605c.048.049.112.07.18.07a.245.245 0 0 0 .247-.258.263.263 0 0 0-.07-.165c-.204-.206-.607-.607-.607-.607l-.355.355Zm-1.138 1.137.606.605c.048.05.112.07.18.07a.244.244 0 0 0 .246-.258.257.257 0 0 0-.07-.165c-.204-.206-.606-.607-.606-.607l-.356.355Zm-2.09-.17-.605.605a.25.25 0 0 0-.07.18c0 .142.116.253.258.247a.257.257 0 0 0 .165-.07l.607-.607-.355-.355Zm-.952-.953-.605.605a.246.246 0 0 0-.07.18.245.245 0 0 0 .257.247.258.258 0 0 0 .166-.07c.206-.204.607-.607.607-.607l-.355-.355Zm2.617-2.717a.26.26 0 0 1 .189-.078c.05 0 .097.016.137.045l.494.363a.24.24 0 0 1 .067.31.26.26 0 0 1-.298.132l.184.718a.262.262 0 0 1-.18.31l-1.339.409.247.956a.262.262 0 0 1-.178.313.235.235 0 0 1-.302-.166l-.309-1.193a.262.262 0 0 1 .179-.31l1.34-.409-.123-.484a.253.253 0 0 1-.318.053.239.239 0 0 1-.09-.301l.244-.584a.264.264 0 0 1 .056-.084Z" clip-rule="evenodd"/><path fill="#CFD4FC" d="M629.766 34.8c.851 0 1.648-.237 2.329-.646.194.158.438.246.692.246.604 0 1.1-.496 1.1-1.1v-.001a1.1 1.1 0 0 0-.243-.688 4.51 4.51 0 0 0 .656-2.345.254.254 0 0 0-.076-.188.26.26 0 0 0-.374 0 .254.254 0 0 0-.076.188 3.99 3.99 0 0 1-.551 2.028 1.095 1.095 0 0 0-.436-.095c-.605 0-1.101.496-1.101 1.1 0 .15.034.296.093.432a3.986 3.986 0 0 1-2.013.543.26.26 0 0 0-.266.263.268.268 0 0 0 .165.244c.032.013.066.02.101.019Zm3.021-.926a.557.557 0 0 1-.445-.213l-.006-.006a.575.575 0 0 1 .811-.803.574.574 0 0 1-.36 1.022Z"/><path fill="#17181C" d="M640.699 28.916v-.552h2.901v.552h-1.124V32h-.653v-3.084h-1.124Zm3.46 3.084v-3.636h.659v1.54h1.685v-1.54h.661V32h-.661v-1.545h-1.685V32h-.659Zm4.38-3.636V32h-.659v-3.636h.659Zm3.702 0V32h-.586l-1.714-2.477h-.03V32h-.659v-3.636h.59l1.711 2.478h.032v-2.478h.656Zm3.153 1.16a.926.926 0 0 0-.122-.257.8.8 0 0 0-.185-.197.748.748 0 0 0-.245-.122 1.021 1.021 0 0 0-.302-.043.945.945 0 0 0-.522.148.989.989 0 0 0-.36.433c-.087.19-.13.42-.13.692 0 .275.043.508.13.698.086.19.206.336.36.435a.977.977 0 0 0 .537.148c.184 0 .344-.036.479-.107a.748.748 0 0 0 .314-.302.925.925 0 0 0 .11-.462l.149.023h-.987v-.514h1.476v.436c0 .312-.067.581-.199.808a1.362 1.362 0 0 1-.547.526 1.69 1.69 0 0 1-.799.183c-.335 0-.629-.075-.882-.226a1.556 1.556 0 0 1-.592-.644c-.141-.28-.211-.611-.211-.995 0-.293.041-.555.124-.786.084-.231.201-.427.352-.588.15-.162.327-.285.529-.37.202-.084.423-.127.66-.127.202 0 .389.03.563.089.174.058.329.14.464.248a1.375 1.375 0 0 1 .508.874h-.672Zm3.315-.16a.487.487 0 0 0-.21-.363.803.803 0 0 0-.475-.13.908.908 0 0 0-.354.063.522.522 0 0 0-.225.168.41.41 0 0 0-.029.44.482.482 0 0 0 .144.143c.06.038.127.07.201.096.073.026.147.047.222.065l.341.085c.137.032.269.076.396.13.127.055.242.123.342.206a.911.911 0 0 1 .242.3.905.905 0 0 1 .088.412c0 .213-.054.4-.163.563a1.078 1.078 0 0 1-.472.378c-.205.09-.453.135-.744.135-.283 0-.529-.044-.737-.131a1.096 1.096 0 0 1-.486-.384 1.141 1.141 0 0 1-.189-.614h.648c.01.126.049.232.118.316a.616.616 0 0 0 .268.188c.111.041.235.062.373.062.143 0 .268-.021.376-.064a.614.614 0 0 0 .256-.18.44.44 0 0 0 .094-.274.344.344 0 0 0-.084-.235.602.602 0 0 0-.229-.156 2.175 2.175 0 0 0-.341-.113l-.413-.107c-.3-.077-.537-.194-.711-.35a.81.81 0 0 1-.259-.627.94.94 0 0 1 .174-.563 1.15 1.15 0 0 1 .478-.374c.201-.09.429-.135.683-.135a1.6 1.6 0 0 1 .679.135c.195.089.348.212.46.371a.952.952 0 0 1 .172.543h-.634ZM659.98 32v-3.636h1.392c.263 0 .481.041.655.124a.874.874 0 0 1 .392.335.898.898 0 0 1 .132.483.8.8 0 0 1-.085.38.726.726 0 0 1-.229.254.977.977 0 0 1-.322.14v.036a.786.786 0 0 1 .371.12c.12.07.217.17.293.3a.928.928 0 0 1 .114.473.962.962 0 0 1-.137.508.926.926 0 0 1-.412.353c-.183.087-.414.13-.692.13h-1.472Zm.658-.55h.709c.239 0 .411-.046.517-.137a.45.45 0 0 0 .159-.355.546.546 0 0 0-.307-.497.753.753 0 0 0-.351-.077h-.727v1.066Zm0-1.54h.652c.114 0 .216-.02.307-.062a.482.482 0 0 0 .295-.456.452.452 0 0 0-.149-.348c-.098-.091-.245-.137-.439-.137h-.666v1.003Zm5.877.272c0 .392-.073.727-.22 1.007a1.558 1.558 0 0 1-.597.639 1.649 1.649 0 0 1-.854.222c-.318 0-.603-.074-.855-.222a1.59 1.59 0 0 1-.597-.641c-.146-.28-.218-.615-.218-1.005 0-.392.072-.727.218-1.005a1.57 1.57 0 0 1 .597-.641c.252-.148.537-.222.855-.222.319 0 .603.074.854.222.253.148.451.361.597.64.147.279.22.614.22 1.006Zm-.662 0c0-.276-.043-.509-.13-.698a.955.955 0 0 0-.355-.431.94.94 0 0 0-.524-.148.939.939 0 0 0-.523.148.965.965 0 0 0-.357.431c-.086.19-.128.422-.128.698 0 .276.042.509.128.7a.97.97 0 0 0 .357.43.948.948 0 0 0 .523.146.949.949 0 0 0 .524-.145.969.969 0 0 0 .355-.432c.087-.19.13-.423.13-.7ZM667.41 32h-.704l1.281-3.636h.813L670.082 32h-.703l-.972-2.89h-.028L667.41 32Zm.023-1.426h1.917v.53h-1.917v-.53ZM670.561 32v-3.636h1.363c.28 0 .514.048.704.145.19.097.334.233.431.409.098.174.147.377.147.609 0 .233-.049.435-.149.607a.982.982 0 0 1-.435.396 1.619 1.619 0 0 1-.706.138h-.972v-.547h.883c.163 0 .297-.022.401-.067a.48.48 0 0 0 .231-.2.646.646 0 0 0 .076-.327.666.666 0 0 0-.076-.33.487.487 0 0 0-.233-.21.956.956 0 0 0-.403-.073h-.603V32h-.659Zm1.878-1.648L673.34 32h-.736l-.884-1.648h.719ZM675.045 32h-1.232v-3.636h1.257c.361 0 .671.072.93.218.261.144.461.352.6.623.14.271.21.596.21.973 0 .38-.071.705-.211.977s-.342.481-.606.627c-.263.145-.579.218-.948.218Zm-.573-.57h.541c.253 0 .465-.046.634-.139a.892.892 0 0 0 .382-.417c.085-.186.128-.418.128-.696 0-.278-.043-.509-.128-.692a.876.876 0 0 0-.379-.414 1.25 1.25 0 0 0-.617-.138h-.561v2.496Z"/><circle cx="688" cy="30" r="1.75" fill="#3D50F5" stroke="#fff" stroke-width=".5"/><circle cx="615.5" cy="30" r="1.75" fill="#3D50F5" stroke="#fff" stroke-width=".5"/><path fill="#00695C" d="M545.125 29.75a.25.25 0 0 0 0 .5v-.5Zm67.802.427a.251.251 0 0 0 0-.354l-1.591-1.59a.25.25 0 0 0-.354.353L612.396 30l-1.414 1.414a.25.25 0 0 0 .354.354l1.591-1.591ZM545.125 30v.25h67.625v-.5h-67.625V30Z"/></g><defs><clipPath id="a"><path fill="#fff" d="M0 0h720v60H0z"/></clipPath><clipPath id="b"><path fill="#fff" d="M0 0h720v314H0z"/></clipPath><clipPath id="c"><rect width="7.579" height="7.579" x="480.085" y="26.211" fill="#fff" rx=".632"/></clipPath></defs></svg>